<?xml version="1.0" encoding="UTF-8"?>
<!DOCTYPE svg PUBLIC "-//W3C//DTD SVG 1.1//EN" "http://www.w3.org/Graphics/SVG/1.1/DTD/svg11.dtd">
<svg xmlns="http://www.w3.org/2000/svg" version="1.1" width="100px" height="100px" style="shape-rendering:geometricPrecision; text-rendering:geometricPrecision; image-rendering:optimizeQuality; fill-rule:evenodd; clip-rule:evenodd" xmlns:xlink="http://www.w3.org/1999/xlink">
<g><path style="opacity:0.52" fill="#FF8000" d="M 34.5,2.5 C 42.3377,2.15656 43.0043,3.48989 36.5,6.5C 35.2219,10.6912 33.0553,11.3579 30,8.5C 27.0703,9.02445 24.5703,10.3578 22.5,12.5C 21.246,10.7408 21.5794,9.2408 23.5,8C 27.2585,6.12073 30.9252,4.28739 34.5,2.5 Z"/></g>
<g><path style="opacity:0.879" fill="#FF8000" d="M 62.5,4.5 C 63.8734,4.34332 65.2068,4.50999 66.5,5C 65.2376,7.49483 65.5709,7.82816 67.5,6C 69.1667,5.33333 70.8333,5.33333 72.5,6C 88.4144,15.2536 96.9144,29.0869 98,47.5C 96.8361,44.8651 95.6694,42.1984 94.5,39.5C 93.443,41.0032 92.7763,42.6698 92.5,44.5C 93.5284,46.5599 93.5284,48.5599 92.5,50.5C 90.1902,46.7457 88.3569,42.7457 87,38.5C 83.7719,34.5561 81.7719,34.5561 81,38.5C 79.0395,41.1353 76.5395,42.9686 73.5,44C 74.448,44.4828 75.448,44.6495 76.5,44.5C 76.5402,47.4245 75.7068,50.0912 74,52.5C 68.2726,55.8016 65.9392,60.8016 67,67.5C 65.4878,68.2567 64.1545,69.2567 63,70.5C 61.0196,77.9816 56.1862,81.315 48.5,80.5C 47.2497,76.1661 45.583,71.9995 43.5,68C 44.0294,66.4411 44.696,64.9411 45.5,63.5C 43.3717,59.7674 42.0383,55.7674 41.5,51.5C 39.5165,51.6168 37.8498,50.9501 36.5,49.5C 29.8705,53.5172 24.7038,51.8506 21,44.5C 20.1526,37.1942 22.8192,31.5276 29,27.5C 29.662,25.1873 30.162,22.854 30.5,20.5C 32.5273,20.6621 34.5273,20.4955 36.5,20C 34.7604,18.3156 33.5937,16.4823 33,14.5C 34.586,13.624 36.086,12.624 37.5,11.5C 38.8924,12.6053 40.059,13.9386 41,15.5C 41.9246,14.9535 42.7579,14.2868 43.5,13.5C 42.7542,12.2638 42.4208,10.9305 42.5,9.5C 45.9486,8.3614 49.4486,7.3614 53,6.5C 56.1429,7.10745 59.3095,7.44078 62.5,7.5C 62.5,6.5 62.5,5.5 62.5,4.5 Z M 50.5,10.5 C 51.7759,11.3864 51.7759,12.3864 50.5,13.5C 49.913,12.7666 49.913,11.7666 50.5,10.5 Z M 58.5,20.5 C 60.4817,20.9954 62.4817,21.4954 64.5,22C 62.1667,22.6667 59.8333,22.6667 57.5,22C 58.056,21.6174 58.3893,21.1174 58.5,20.5 Z M 39.5,21.5 C 42.5641,21.1437 45.2307,21.9771 47.5,24C 44.2423,24.2117 41.0757,24.7117 38,25.5C 38.1433,24.1351 38.6433,22.8018 39.5,21.5 Z M 54.5,23.5 C 55.2674,24.172 55.9341,25.0053 56.5,26C 58.5767,26.1922 60.5767,26.6922 62.5,27.5C 62.1924,28.3081 61.6924,28.9747 61,29.5C 58.3348,29.2968 55.5015,28.6301 52.5,27.5C 49.8624,30.0362 47.529,29.7028 45.5,26.5C 47.2028,26.8507 48.8695,26.184 50.5,24.5C 52.901,27.4127 54.2343,27.0794 54.5,23.5 Z"/></g>
<g><path style="opacity:0.157" fill="#FF8000" d="M 14.5,14.5 C 15.3764,14.3691 16.0431,14.7025 16.5,15.5C 15.5,16.8333 14.5,18.1667 13.5,19.5C 12.3482,17.6029 12.6815,15.9362 14.5,14.5 Z"/></g>
<g><path style="opacity:0.74" fill="#FF8000" d="M 1.5,46.5 C 3.16319,48.4927 4.32986,50.8261 5,53.5C 6.87536,54.7424 8.7087,56.0758 10.5,57.5C 11.7766,60.0341 11.7766,62.5341 10.5,65C 12.7516,67.8587 12.7516,70.5253 10.5,73C 12.0499,75.095 12.3832,77.2617 11.5,79.5C 3.7091,69.7981 0.375762,58.7981 1.5,46.5 Z"/></g>
<g><path style="opacity:0.186" fill="#FF8000" d="M 96.5,50.5 C 97.4778,50.811 98.1445,51.4777 98.5,52.5C 97.846,54.1151 97.346,55.7818 97,57.5C 96.5034,55.1902 96.3367,52.8568 96.5,50.5 Z"/></g>
<g><path style="opacity:0.575" fill="#FF8000" d="M 72.5,64.5 C 74.2252,64.8425 74.7252,65.8425 74,67.5C 72.9417,71.0527 70.775,73.3861 67.5,74.5C 67.2872,70.0901 68.9539,66.7568 72.5,64.5 Z"/></g>
<g><path style="opacity:0.537" fill="#FF8000" d="M 58.5,93.5 C 65.0631,94.45 65.0631,95.6166 58.5,97C 52.4724,97.8303 46.4724,97.6636 40.5,96.5C 46.7012,95.3829 52.7012,94.3829 58.5,93.5 Z"/></g>
</svg>
