<?xml version="1.0" encoding="UTF-8"?>
<!DOCTYPE svg PUBLIC "-//W3C//DTD SVG 1.1//EN" "http://www.w3.org/Graphics/SVG/1.1/DTD/svg11.dtd">
<svg xmlns="http://www.w3.org/2000/svg" version="1.1" width="100px" height="100px" style="shape-rendering:geometricPrecision; text-rendering:geometricPrecision; image-rendering:optimizeQuality; fill-rule:evenodd; clip-rule:evenodd" xmlns:xlink="http://www.w3.org/1999/xlink">
<g><path style="opacity:0.81" fill="#FF8000" d="M 18.5,1.5 C 19.552,1.35055 20.552,1.51722 21.5,2C 20.1667,3.66667 18.8333,5.33333 17.5,7C 18.549,7.49224 19.549,7.32557 20.5,6.5C 22.5351,8.37222 24.7017,10.0389 27,11.5C 28.605,10.8993 29.9384,9.89926 31,8.5C 32.9068,8.42054 34.9068,8.75387 37,9.5C 38.7006,7.58986 40.8673,6.42319 43.5,6C 47.99,5.40777 52.3233,4.74111 56.5,4C 58.6789,5.25668 60.6789,6.75668 62.5,8.5C 65.3618,21.0941 62.0285,21.9275 52.5,11C 50.567,10.7489 48.7337,10.2489 47,9.5C 46.3333,10.1667 46.3333,10.8333 47,11.5C 49.4275,12.7814 51.9275,13.7814 54.5,14.5C 54.3433,15.8734 54.51,17.2068 55,18.5C 58.779,21.2358 62.279,24.2358 65.5,27.5C 61.9875,30.1711 58.3208,32.6711 54.5,35C 54.0943,38.4153 52.4277,41.082 49.5,43C 50.1029,44.8254 50.7696,46.6587 51.5,48.5C 54.5,49.8333 57.5,51.1667 60.5,52.5C 59.3717,53.2621 58.2051,53.9288 57,54.5C 53.498,52.2109 49.8313,51.2109 46,51.5C 45.5521,49.5911 46.3855,48.4244 48.5,48C 47.6634,46.9887 47.33,45.8221 47.5,44.5C 43.8936,44.2108 40.3936,44.5442 37,45.5C 35.4178,47.6237 35.2512,49.7904 36.5,52C 39.1794,51.8425 41.846,51.3425 44.5,50.5C 44.5792,51.9305 44.2458,53.2638 43.5,54.5C 44.6605,54.4366 45.9938,54.7699 47.5,55.5C 48.5896,56.3914 48.5896,57.3914 47.5,58.5C 47.8333,59.5 48.5,60.1667 49.5,60.5C 50.5,59.1667 51.5,59.1667 52.5,60.5C 53.906,59.0493 55.406,57.7159 57,56.5C 59.2294,58.1458 61.5627,58.4792 64,57.5C 65.9439,58.4394 67.6106,59.7727 69,61.5C 69.7175,60.5494 70.5509,60.3828 71.5,61C 72.7433,62.1545 73.7433,63.4878 74.5,65C 77.1193,65.1515 79.4527,65.9848 81.5,67.5C 74.1271,82.5417 62.4604,92.5417 46.5,97.5C 47.2977,94.1888 49.131,91.5222 52,89.5C 53.1667,87.1667 54.3333,84.8333 55.5,82.5C 52.0174,80.0439 49.3507,76.8772 47.5,73C 49.2806,69.6093 50.4473,66.1093 51,62.5C 47.3207,63.0743 44.4874,61.5743 42.5,58C 38.654,56.3678 34.654,55.0344 30.5,54C 28.4593,52.7582 27.2927,50.9249 27,48.5C 25.4345,49.0606 24.1011,48.3939 23,46.5C 21.5359,42.0847 19.7026,37.9181 17.5,34C 18.1058,30.8492 19.1058,27.8492 20.5,25C 19.9211,21.8614 18.9211,18.8614 17.5,16C 15.2305,15.2419 13.0639,15.4086 11,16.5C 10.2496,15.8742 9.41623,15.3742 8.5,15C 11.0298,13.8049 13.0298,11.9716 14.5,9.5C 13.675,8.61432 12.675,8.28099 11.5,8.5C 11.281,7.32496 11.6143,6.32496 12.5,5.5C 14.5654,4.1433 16.5654,2.80996 18.5,1.5 Z M 46.5,14.5 C 48.7602,15.2376 48.9269,16.2376 47,17.5C 46.5172,16.552 46.3505,15.552 46.5,14.5 Z M 41.5,18.5 C 43.5,18.5 45.5,18.5 47.5,18.5C 47.33,19.8221 47.6634,20.9887 48.5,22C 47.9747,22.6924 47.3081,23.1924 46.5,23.5C 44.4899,22.4981 42.4899,21.4981 40.5,20.5C 40.8627,19.8165 41.1961,19.1499 41.5,18.5 Z M 59.5,26.5 C 60.7733,27.0768 60.7733,27.7435 59.5,28.5C 58.537,28.0302 58.537,27.3635 59.5,26.5 Z"/></g>
<g><path style="opacity:0.399" fill="#FF8000" d="M 62.5,4.5 C 62.56,3.95691 62.8933,3.62358 63.5,3.5C 82.0993,14.104 90.766,30.104 89.5,51.5C 88.1936,50.0878 87.3603,48.4211 87,46.5C 85.8921,40.8527 84.8921,35.1861 84,29.5C 81.7853,26.4039 80.1186,23.0705 79,19.5C 77.8289,18.1068 76.3289,17.2735 74.5,17C 71.7058,11.7052 67.7058,7.53851 62.5,4.5 Z"/></g>
<g><path style="opacity:0.292" fill="#FF8000" d="M 65.5,9.5 C 67.5323,10.0478 68.5323,11.3812 68.5,13.5C 65.0464,13.7332 64.0464,12.3999 65.5,9.5 Z"/></g>
</svg>
