<?xml version="1.0" encoding="UTF-8"?>
<!DOCTYPE svg PUBLIC "-//W3C//DTD SVG 1.1//EN" "http://www.w3.org/Graphics/SVG/1.1/DTD/svg11.dtd">
<svg xmlns="http://www.w3.org/2000/svg" version="1.1" width="100px" height="100px" style="shape-rendering:geometricPrecision; text-rendering:geometricPrecision; image-rendering:optimizeQuality; fill-rule:evenodd; clip-rule:evenodd" xmlns:xlink="http://www.w3.org/1999/xlink">
<g><path style="opacity:0.839" fill="#FF8000" d="M 77.5,72.5 C 70.9948,73.8642 64.6615,73.0309 58.5,70C 56.7433,67.1544 54.7433,64.4878 52.5,62C 53.8333,61.6667 55.1667,61.3333 56.5,61C 55.7511,59.2663 55.2511,57.433 55,55.5C 54.2904,54.0267 53.1238,53.3601 51.5,53.5C 50.7653,48.1317 48.432,47.2984 44.5,51C 42.8783,52.2951 41.545,53.7951 40.5,55.5C 42.1512,62.0989 40.8178,62.9322 36.5,58C 35.3404,53.514 33.5071,49.3473 31,45.5C 29.5589,44.7402 28.0589,44.0736 26.5,43.5C 26.8458,45.6338 25.8458,47.4671 23.5,49C 20.8333,50 18.1667,51 15.5,52C 17.2556,52.2022 18.9223,52.7022 20.5,53.5C 18.9017,57.7114 16.5684,61.378 13.5,64.5C 16.0277,69.2154 17.3611,74.0487 17.5,79C 16.5509,79.6172 15.7175,79.4506 15,78.5C 4.50196,62.9977 2.83529,46.6643 10,29.5C 11.6743,30.6765 13.1743,32.0098 14.5,33.5C 14.8333,33.1667 15.1667,32.8333 15.5,32.5C 13.7745,30.7721 12.4411,28.7721 11.5,26.5C 14.1328,20.356 18.1328,15.1894 23.5,11C 26.6076,9.24148 29.941,8.40814 33.5,8.5C 33.4501,10.5901 34.4501,11.9234 36.5,12.5C 37.6956,12.1543 37.6956,11.6543 36.5,11C 39.366,9.54321 42.366,9.20988 45.5,10C 40.226,10.813 40.226,11.313 45.5,11.5C 49.6925,10.9957 53.8592,10.329 58,9.5C 59.8122,9.49337 61.3122,10.16 62.5,11.5C 64.1667,10.1667 65.8333,10.1667 67.5,11.5C 71.4495,11.186 75.2828,9.85267 79,7.5C 82.5555,9.4494 84.0555,12.2827 83.5,16C 85.3959,17.8083 85.8959,19.975 85,22.5C 83.4263,21.0158 82.093,19.3492 81,17.5C 79.6439,18.3802 78.1439,18.7135 76.5,18.5C 76.3505,19.552 76.5172,20.552 77,21.5C 77.7175,20.5494 78.5509,20.3828 79.5,21C 81.0383,22.9321 82.205,25.0988 83,27.5C 83.3333,27.1667 83.6667,26.8333 84,26.5C 84.0684,29.3374 84.0684,32.3374 84,35.5C 82.406,36.7159 80.906,38.0493 79.5,39.5C 77.5781,38.289 75.7448,36.9557 74,35.5C 72.421,37.4585 72.5876,39.4585 74.5,41.5C 72.1801,47.1274 68.1801,49.9608 62.5,50C 66.7698,53.6569 66.4365,56.8235 61.5,59.5C 60.4805,58.3128 59.3139,57.3128 58,56.5C 57.6747,58.8366 58.6747,60.5033 61,61.5C 60.2161,68.9754 63.7161,72.1421 71.5,71C 72.5536,69.6124 72.7203,68.1124 72,66.5C 70.6409,69.9496 68.4742,70.4496 65.5,68C 64.9415,67.2753 64.6082,66.4419 64.5,65.5C 68.1543,62.8412 71.1543,59.5078 73.5,55.5C 73.8333,55.8333 74.1667,56.1667 74.5,56.5C 73.8333,57.5 73.1667,58.5 72.5,59.5C 73.7111,60.7202 73.7111,61.8869 72.5,63C 74.7135,63.6256 76.8801,63.4589 79,62.5C 79.9454,62.9054 80.6121,63.572 81,64.5C 82.7506,63.8263 84.4173,63.493 86,63.5C 88.7404,65.3597 91.2404,65.3597 93.5,63.5C 93.8333,63.8333 94.1667,64.1667 94.5,64.5C 93.7366,65.7193 92.7366,66.7193 91.5,67.5C 91.7093,68.086 92.0426,68.586 92.5,69C 91.1667,69.3333 89.8333,69.6667 88.5,70C 89.4141,73.2431 90.0807,76.2431 90.5,79C 87.6587,83.0071 84.3253,86.5071 80.5,89.5C 79.4597,87.6251 77.9597,86.2918 76,85.5C 72.9788,87.0073 69.8121,88.0073 66.5,88.5C 64.6567,82.8928 66.6567,79.3928 72.5,78C 74.3734,76.2962 76.0401,74.4628 77.5,72.5 Z M 80.5,27.5 C 81.2344,28.8775 81.9011,30.3775 82.5,32C 80.4397,36.0202 78.4397,36.1869 76.5,32.5C 78.2065,31.1274 79.5398,29.4607 80.5,27.5 Z M 77.5,72.5 C 79.6281,71.7195 79.7947,70.7195 78,69.5C 76.7711,71.9468 75.2711,72.1135 73.5,70C 75.8856,69.7165 76.5523,68.7165 75.5,67C 76.6763,64.699 78.0096,64.3657 79.5,66C 79.1667,66.3333 78.8333,66.6667 78.5,67C 80.9199,66.0119 83.2533,66.3452 85.5,68C 83.3699,69.8323 81.2033,71.6657 79,73.5C 78.6174,72.944 78.1174,72.6107 77.5,72.5 Z M 84.5,72.5 C 86.337,72.6395 86.6704,73.3061 85.5,74.5C 84.7025,74.0431 84.3691,73.3764 84.5,72.5 Z"/></g>
<g><path style="opacity:0.384" fill="#FF8000" d="M 73.5,49.5 C 76.4346,51.7075 78.4346,54.7075 79.5,58.5C 78.1866,60.8853 76.5199,61.0519 74.5,59C 75.0585,58.2753 75.3918,57.4419 75.5,56.5C 74.7515,54.9644 73.7515,53.6311 72.5,52.5C 73.1272,51.5832 73.4606,50.5832 73.5,49.5 Z"/></g>
<g><path style="opacity:0.579" fill="#FF8000" d="M 18.5,70.5 C 19.7498,70.5774 20.5831,71.244 21,72.5C 21.2362,74.764 21.7362,76.9307 22.5,79C 20.6332,79.7112 19.1332,79.2112 18,77.5C 17.4436,75.1152 17.6103,72.7819 18.5,70.5 Z"/></g>
</svg>
