<?xml version="1.0" encoding="UTF-8"?>
<!DOCTYPE svg PUBLIC "-//W3C//DTD SVG 1.1//EN" "http://www.w3.org/Graphics/SVG/1.1/DTD/svg11.dtd">
<svg xmlns="http://www.w3.org/2000/svg" version="1.1" width="100px" height="100px" style="shape-rendering:geometricPrecision; text-rendering:geometricPrecision; image-rendering:optimizeQuality; fill-rule:evenodd; clip-rule:evenodd" xmlns:xlink="http://www.w3.org/1999/xlink">
<g><path style="opacity:0.648" fill="#FF8000" d="M 31.5,3.5 C 32.3764,3.36912 33.0431,3.70245 33.5,4.5C 32.4149,7.77303 32.2483,11.1064 33,14.5C 36.4219,15.6241 38.9219,17.7908 40.5,21C 37.6444,22.6569 34.9777,24.6569 32.5,27C 30.3203,27.4188 28.1537,27.2521 26,26.5C 24.0164,26.7413 22.1831,27.4079 20.5,28.5C 19.3691,26.9255 19.2025,25.2588 20,23.5C 21.7548,20.9561 23.7548,18.6227 26,16.5C 26.7805,15.0563 26.6139,13.723 25.5,12.5C 23.6868,16.6607 20.6868,19.4941 16.5,21C 16.8333,21.3333 17.1667,21.6667 17.5,22C 15.4268,25.7787 13.4268,29.612 11.5,33.5C 9.5487,31.3776 7.21537,29.8776 4.5,29C 7.23622,23.0312 11.0696,17.8645 16,13.5C 16.5074,14.9961 16.0074,16.1627 14.5,17C 15.9078,17.3152 17.2411,16.9819 18.5,16C 18.1667,15.6667 17.8333,15.3333 17.5,15C 18.0897,13.4905 18.7564,11.9905 19.5,10.5C 23.5595,8.07144 27.5595,5.73811 31.5,3.5 Z"/></g>
<g><path style="opacity:0.88" fill="#FF8000" d="M 67.5,89.5 C 64.3595,91.7775 61.0262,93.9441 57.5,96C 54.5352,97.4981 51.5352,97.6648 48.5,96.5C 46.9501,94.5721 45.2834,92.7387 43.5,91C 46.2654,87.9858 45.7654,85.4858 42,83.5C 42.1484,82.175 41.9817,81.0084 41.5,80C 39.481,79.5503 37.6477,78.717 36,77.5C 27.997,79.0777 22.8303,75.9111 20.5,68C 21,65.5 21.5,63 22,60.5C 24.8693,58.4186 27.7027,56.252 30.5,54C 29.572,53.6121 28.9054,52.9454 28.5,52C 29.1476,50.5603 29.4809,49.0603 29.5,47.5C 31.674,47.9202 33.674,47.9202 35.5,47.5C 34.0441,45.424 32.7107,43.2573 31.5,41C 32.9782,39.5218 34.4782,38.0218 36,36.5C 37.0533,38.7427 38.3866,41.076 40,43.5C 43.8221,42.2135 44.3221,40.2135 41.5,37.5C 41.6667,36.8333 41.8333,36.1667 42,35.5C 45.7305,32.7838 49.7305,30.4505 54,28.5C 58.0667,31.0016 61.9,30.8349 65.5,28C 64.5,27.6667 63.5,27.3333 62.5,27C 62.8947,24.2195 64.228,22.0528 66.5,20.5C 67.2231,22.1639 66.8897,23.8306 65.5,25.5C 66.2739,26.7112 67.1072,26.7112 68,25.5C 69.2341,22.3331 70.4008,19.1664 71.5,16C 70.1398,14.0624 70.4732,12.3957 72.5,11C 71.7449,8.86688 70.4116,7.20021 68.5,6C 79.735,9.89128 87.9016,17.3913 93,28.5C 96.3153,35.5625 97.4819,42.8958 96.5,50.5C 95.914,50.2907 95.414,49.9574 95,49.5C 93.8399,54.4342 93.3399,59.4342 93.5,64.5C 90.1653,63.5392 88.4986,61.2059 88.5,57.5C 85.2677,56.0927 82.2677,56.5927 79.5,59C 81.158,59.7253 81.658,60.892 81,62.5C 79.5126,64.9852 77.6792,67.1518 75.5,69C 76.3081,69.3076 76.9747,69.8076 77.5,70.5C 76.0136,75.8209 72.8469,79.8209 68,82.5C 67.5034,84.8098 67.3367,87.1432 67.5,89.5 Z M 50.5,38.5 C 51.7759,39.3864 51.7759,40.3864 50.5,41.5C 49.4376,40.5754 49.4376,39.5754 50.5,38.5 Z M 58.5,48.5 C 60.9751,48.8539 63.3084,49.3539 65.5,50C 63.3018,50.3729 61.1351,50.8729 59,51.5C 57.3167,50.8235 57.1501,49.8235 58.5,48.5 Z M 39.5,50.5 C 42.7449,50.8801 45.7449,52.0468 48.5,54C 44.4589,54.8265 40.4589,54.6599 36.5,53.5C 37.7701,52.7124 38.7701,51.7124 39.5,50.5 Z M 50.5,53.5 C 52.2381,57.1505 53.7381,57.1505 55,53.5C 55.3742,54.4162 55.8742,55.2496 56.5,56C 58.6846,55.8124 60.6846,55.6457 62.5,55.5C 63.521,56.0016 63.6877,56.6683 63,57.5C 60.0074,59.5405 56.8408,59.8738 53.5,58.5C 52.3279,58.9186 51.3279,59.5853 50.5,60.5C 49.1502,59.0499 47.4835,58.3832 45.5,58.5C 45.1192,56.0582 45.7859,55.3915 47.5,56.5C 48.8549,55.8118 49.8549,54.8118 50.5,53.5 Z M 74.5,58.5 C 76.3547,58.272 77.1881,58.9387 77,60.5C 76.0053,59.9341 75.172,59.2674 74.5,58.5 Z"/></g>
<g><path style="opacity:0.381" fill="#FF8000" d="M 28.5,28.5 C 30.5,28.8333 32.5,29.1667 34.5,29.5C 34.5,30.5 34.5,31.5 34.5,32.5C 31.0306,33.1128 29.0306,31.7794 28.5,28.5 Z"/></g>
<g><path style="opacity:0.465" fill="#FF8000" d="M 1.5,57.5 C 3.59647,63.6861 6.76313,69.3527 11,74.5C 11.6987,76.0738 11.3654,77.4071 10,78.5C 4.93923,72.3816 2.10589,65.3816 1.5,57.5 Z"/></g>
<g><path style="opacity:0.506" fill="#FF8000" d="M 67.5,89.5 C 68.6741,87.5591 70.3408,86.0591 72.5,85C 73.3317,84.3123 73.9984,84.479 74.5,85.5C 73.2195,88.4474 71.2195,90.7807 68.5,92.5C 67.6143,91.675 67.281,90.675 67.5,89.5 Z"/></g>
</svg>
