<?xml version="1.0" encoding="UTF-8"?>
<!DOCTYPE svg PUBLIC "-//W3C//DTD SVG 1.1//EN" "http://www.w3.org/Graphics/SVG/1.1/DTD/svg11.dtd">
<svg xmlns="http://www.w3.org/2000/svg" version="1.1" width="100px" height="100px" style="shape-rendering:geometricPrecision; text-rendering:geometricPrecision; image-rendering:optimizeQuality; fill-rule:evenodd; clip-rule:evenodd" xmlns:xlink="http://www.w3.org/1999/xlink">
<g><path style="opacity:0.088" fill="#FF8000" d="M 32.5,1.5 C 38.3125,1.34434 38.6459,2.01101 33.5,3.5C 32.7025,3.04311 32.3691,2.37644 32.5,1.5 Z"/></g>
<g><path style="opacity:0.805" fill="#FF8000" d="M 28.5,2.5 C 30.3786,2.39318 30.7119,2.89318 29.5,4C 23.0976,6.03101 19.4309,10.3643 18.5,17C 22.032,19.3682 25.3654,22.0349 28.5,25C 31.1573,24.5992 33.824,23.7658 36.5,22.5C 37.7164,23.0016 38.8831,23.3349 40,23.5C 44.1899,20.2333 49.0233,18.4 54.5,18C 55.6667,15.5 57.5,13.6667 60,12.5C 63.2974,14.7954 66.2974,17.462 69,20.5C 71.3508,17.9568 72.5175,18.6235 72.5,22.5C 70.8333,22.5 69.1667,22.5 67.5,22.5C 67.5751,25.2062 67.9084,27.8728 68.5,30.5C 63.7562,30.2751 60.0895,28.1084 57.5,24C 55.0982,23.1859 52.7649,23.3526 50.5,24.5C 53.1667,25.8333 55.8333,27.1667 58.5,28.5C 59.1667,30.1667 59.8333,31.8333 60.5,33.5C 64.5365,34.8497 67.8699,37.183 70.5,40.5C 68.0243,41.8088 66.0243,43.6421 64.5,46C 63.552,46.4828 62.552,46.6495 61.5,46.5C 60.0781,50.7504 58.0781,54.7504 55.5,58.5C 56.3094,60.0709 56.6427,61.7376 56.5,63.5C 59.5623,63.8442 62.5623,64.5109 65.5,65.5C 64.5617,66.5529 63.395,67.2196 62,67.5C 58.6169,66.186 55.1169,65.3527 51.5,65C 52.3279,64.0853 53.3279,63.4186 54.5,63C 53.8333,62 53.1667,61 52.5,60C 49.905,60.1307 47.405,59.964 45,59.5C 41.0595,62.2397 40.8929,64.9063 44.5,67.5C 46.3337,66.2455 48.3337,65.5789 50.5,65.5C 50.67,66.8221 50.3366,67.9887 49.5,69C 51.2556,69.2022 52.9223,69.7022 54.5,70.5C 52.9731,72.3304 53.4731,73.3304 56,73.5C 58.7623,72.4522 61.429,71.1189 64,69.5C 65.7562,70.5481 67.5896,70.5481 69.5,69.5C 72.897,69.8143 76.0637,70.8143 79,72.5C 80.4397,71.8524 81.9397,71.5191 83.5,71.5C 80.2362,81.2704 73.9029,88.4371 64.5,93C 61.1884,94.8445 57.8551,95.6778 54.5,95.5C 57.0237,93.8099 59.0237,91.6432 60.5,89C 57.2554,88.3635 54.9221,86.5302 53.5,83.5C 55.4847,81.0704 56.6514,78.4037 57,75.5C 56.586,75.9574 56.086,76.2907 55.5,76.5C 49.1861,72.8432 42.5194,70.0099 35.5,68C 33.6061,66.8989 32.9394,65.5655 33.5,64C 32.175,64.1484 31.0084,63.9817 30,63.5C 27.571,58.2372 25.071,53.0705 22.5,48C 26.7634,36.1876 22.7634,29.1876 10.5,27C 11.448,26.5172 12.448,26.3505 13.5,26.5C 13.244,24.0876 14.244,22.4209 16.5,21.5C 14.0194,18.68 11.0194,16.68 7.5,15.5C 13.4207,9.37546 20.4207,5.04213 28.5,2.5 Z M 50.5,28.5 C 53.5954,29.1187 53.9288,30.1187 51.5,31.5C 50.6143,30.675 50.281,29.675 50.5,28.5 Z M 46.5,33.5 C 48.5,33.5 50.5,33.5 52.5,33.5C 52.4208,34.9305 52.7542,36.2638 53.5,37.5C 50.2412,38.7492 47.2412,38.2492 44.5,36C 45.3805,35.2917 46.0472,34.4584 46.5,33.5 Z M 64.5,40.5 C 65.7125,41.4971 65.5458,42.4971 64,43.5C 63.5304,42.4232 63.6971,41.4232 64.5,40.5 Z"/></g>
<g><path style="opacity:0.393" fill="#FF8000" d="M 62.5,5.5 C 80.6663,14.6426 89.6663,29.3093 89.5,49.5C 88.1588,45.6163 87.3255,41.6163 87,37.5C 85.2858,33.8073 83.6191,30.1406 82,26.5C 81.1475,24.8753 80.1475,24.5419 79,25.5C 77.4263,24.0158 76.093,22.3492 75,20.5C 74.5439,19.2559 75.0439,18.4226 76.5,18C 72.0479,15.0555 67.7145,11.8888 63.5,8.5C 62.6143,7.67504 62.281,6.67504 62.5,5.5 Z"/></g>
<g><path style="opacity:0.016" fill="#FF8000" d="M 89.5,50.5 C 90.8333,51.1667 90.8333,51.1667 89.5,50.5 Z"/></g>
</svg>
