<?xml version="1.0" encoding="UTF-8"?>
<!DOCTYPE svg PUBLIC "-//W3C//DTD SVG 1.1//EN" "http://www.w3.org/Graphics/SVG/1.1/DTD/svg11.dtd">
<svg xmlns="http://www.w3.org/2000/svg" version="1.1" width="100px" height="100px" style="shape-rendering:geometricPrecision; text-rendering:geometricPrecision; image-rendering:optimizeQuality; fill-rule:evenodd; clip-rule:evenodd" xmlns:xlink="http://www.w3.org/1999/xlink">
<g><path style="opacity:0.819" fill="#FF8000" d="M 39.5,58.5 C 32.0266,60.3681 25.8599,58.3681 21,52.5C 20.2078,50.4127 19.0412,48.5793 17.5,47C 19.0846,46.9152 20.4179,46.7486 21.5,46.5C 20.7864,42.0055 19.1198,38.0055 16.5,34.5C 12.1471,37.945 10.1471,42.2783 10.5,47.5C 9.41641,46.3349 8.58308,45.0016 8,43.5C 7.76846,39.4452 7.26846,35.4452 6.5,31.5C 13.0293,15.7954 24.5293,6.12874 41,2.5C 52.3943,3.5218 63.5609,4.68847 74.5,6C 77.1024,6.88343 79.2691,8.38343 81,10.5C 81.7494,11.635 81.5827,12.635 80.5,13.5C 78.3131,11.1505 75.8131,9.15049 73,7.5C 71.108,8.13003 69.4413,9.13003 68,10.5C 67.6667,10.1667 67.3333,9.83333 67,9.5C 65.907,11.3492 64.5737,13.0158 63,14.5C 61.9783,13.646 61.1449,12.646 60.5,11.5C 55.6996,10.1877 54.033,10.1877 55.5,11.5C 56.0522,13.3307 56.0522,14.9974 55.5,16.5C 56.0253,17.1924 56.6919,17.6924 57.5,18C 55.4219,19.4858 54.0885,21.4858 53.5,24C 51.7306,25.0194 50.0639,25.186 48.5,24.5C 47.8333,25.1667 47.1667,25.8333 46.5,26.5C 44.1921,25.3589 42.3587,23.6922 41,21.5C 40.3333,24.1667 39.6667,26.8333 39,29.5C 35.8746,32.9059 32.208,34.5725 28,34.5C 28.3333,36.8333 28.6667,39.1667 29,41.5C 26.7683,45.325 24.7683,45.325 23,41.5C 22.5,42 22,42.5 21.5,43C 23.9733,46.909 25.9733,51.0756 27.5,55.5C 31.5824,56.6892 35.5824,57.6892 39.5,58.5 Z M 52.5,17.5 C 52.67,18.8221 52.3366,19.9887 51.5,21C 49.6494,21.8372 47.8161,22.6705 46,23.5C 45.9349,19.404 48.1015,17.404 52.5,17.5 Z"/></g>
<g><path style="opacity:0.385" fill="#FF8000" d="M 36.5,35.5 C 38.9424,35.3537 39.6091,36.187 38.5,38C 41.3019,40.1052 42.6352,42.9386 42.5,46.5C 37.6057,46.4769 36.6057,44.6436 39.5,41C 38.552,40.5172 37.552,40.3505 36.5,40.5C 36.5,38.8333 36.5,37.1667 36.5,35.5 Z"/></g>
<g><path style="opacity:0.534" fill="#FF8000" d="M 35.5,41.5 C 34.2086,43.8108 34.2086,46.1442 35.5,48.5C 37.4233,49.3078 39.4233,49.8078 41.5,50C 39.9262,51.8259 39.0929,53.9925 39,56.5C 38.2588,55.3595 37.4255,55.3595 36.5,56.5C 35.7189,55.2713 35.2189,53.938 35,52.5C 33.6518,55.5673 31.4851,55.9006 28.5,53.5C 28.0688,52.7065 27.7355,51.8732 27.5,51C 30.7297,48.2734 33.3964,45.1067 35.5,41.5 Z"/></g>
<g><path style="opacity:0.784" fill="#FF8000" d="M 42.5,48.5 C 43.7124,49.2299 44.7124,50.2299 45.5,51.5C 47.3591,51.8879 49.3591,51.8879 51.5,51.5C 54.4456,52.3061 57.1123,53.6395 59.5,55.5C 60.7481,54.9598 61.9148,54.2931 63,53.5C 63.4828,54.448 63.6495,55.448 63.5,56.5C 58.5786,56.1349 58.2453,57.1349 62.5,59.5C 62.1667,59.8333 61.8333,60.1667 61.5,60.5C 59.5878,58.8439 57.5878,58.5105 55.5,59.5C 56.9198,63.3451 59.0865,66.6784 62,69.5C 62.1667,70.6667 62.3333,71.8333 62.5,73C 60.6587,77.1323 58.6587,80.6323 56.5,83.5C 55.7379,82.3717 55.0712,81.2051 54.5,80C 51.6714,78.7533 49.0048,77.2533 46.5,75.5C 43.8333,76.5 41.1667,77.5 38.5,78.5C 34.5893,75.6938 33.2559,72.0271 34.5,67.5C 37.8647,66.9676 40.1981,65.1342 41.5,62C 42.4491,61.3828 43.2825,61.5494 44,62.5C 45.0095,59.5525 46.8429,58.8858 49.5,60.5C 51.7135,65.9389 53.3802,65.7722 54.5,60C 53.4366,58.8118 52.1033,58.3118 50.5,58.5C 49.14,54.4866 46.4733,53.1533 42.5,54.5C 42.5,52.5 42.5,50.5 42.5,48.5 Z"/></g>
<g><path style="opacity:0.212" fill="#FF8000" d="M 39.5,58.5 C 44.6659,57.1854 44.8325,57.8521 40,60.5C 39.5357,59.9056 39.369,59.2389 39.5,58.5 Z"/></g>
<g><path style="opacity:0.008" fill="#FF8000" d="M 81.5,64.5 C 82.8333,65.1667 82.8333,65.1667 81.5,64.5 Z"/></g>
<g><path style="opacity:0.321" fill="#FF8000" d="M 72.5,76.5 C 74.0783,77.0656 75.4116,78.0656 76.5,79.5C 73.7544,81.6229 70.921,83.6229 68,85.5C 67.5,85 67,84.5 66.5,84C 68.8333,82.3333 71.1667,80.6667 73.5,79C 72.7476,78.3292 72.4142,77.4959 72.5,76.5 Z"/></g>
<g><path style="opacity:0.625" fill="#FF8000" d="M 36.5,92.5 C 41.129,92.7097 45.7957,92.7097 50.5,92.5C 63.6656,94.5286 63.4989,96.1953 50,97.5C 45.4036,97.3912 40.9036,96.7245 36.5,95.5C 36.5,94.5 36.5,93.5 36.5,92.5 Z"/></g>
</svg>
