<?xml version="1.0" encoding="UTF-8"?>
<!DOCTYPE svg PUBLIC "-//W3C//DTD SVG 1.1//EN" "http://www.w3.org/Graphics/SVG/1.1/DTD/svg11.dtd">
<svg xmlns="http://www.w3.org/2000/svg" version="1.1" width="100px" height="100px" style="shape-rendering:geometricPrecision; text-rendering:geometricPrecision; image-rendering:optimizeQuality; fill-rule:evenodd; clip-rule:evenodd" xmlns:xlink="http://www.w3.org/1999/xlink">
<g><path style="opacity:0.843" fill="#FF8000" d="M 42.5,0.5 C 45.6025,1.42824 48.2692,3.09491 50.5,5.5C 45.2352,7.2095 40.2352,8.7095 35.5,10C 33.9095,12.1326 31.9095,13.7993 29.5,15C 30.3366,16.0113 30.67,17.1779 30.5,18.5C 28.7231,18.2137 27.0564,17.5471 25.5,16.5C 20.9989,16.3584 17.9989,18.3584 16.5,22.5C 16.8076,23.3081 17.3076,23.9747 18,24.5C 24.4439,19.0473 31.6106,18.0473 39.5,21.5C 35.7532,22.6013 32.0866,22.268 28.5,20.5C 22.5689,21.802 22.2355,23.6353 27.5,26C 26.2164,27.2975 26.3831,28.4642 28,29.5C 31.0317,28.9077 33.6984,27.5744 36,25.5C 37.8366,25.6654 39.8366,26.332 42,27.5C 42.5613,26.9781 43.228,26.6448 44,26.5C 46.3689,28.8671 49.2023,30.3671 52.5,31C 54.0368,32.1096 54.7035,33.6096 54.5,35.5C 58.6387,36.4865 62.472,38.1532 66,40.5C 66.6667,42.1667 66.6667,43.8333 66,45.5C 63.9654,48.2448 62.2987,51.2448 61,54.5C 56.8624,55.0707 54.1958,57.404 53,61.5C 51.8289,62.8932 50.3289,63.7265 48.5,64C 48.8333,64.3333 49.1667,64.6667 49.5,65C 43.6322,67.712 41.9655,71.8786 44.5,77.5C 41.7274,78.9305 39.5607,78.2638 38,75.5C 36.5795,68.3902 36.7462,61.2235 38.5,54C 34.2698,50.088 30.6031,45.588 27.5,40.5C 28.5155,37.3871 29.3488,34.0538 30,30.5C 29.2753,31.0585 28.4419,31.3918 27.5,31.5C 22.3622,28.1454 16.6956,26.8121 10.5,27.5C 10.6495,26.448 10.4828,25.448 10,24.5C 9,25.8333 8,25.8333 7,24.5C 6.33333,23.1667 6.33333,21.8333 7,20.5C 14.1515,10.7192 23.3182,4.71919 34.5,2.5C 37.3056,1.83236 39.9723,1.16569 42.5,0.5 Z"/></g>
<g><path style="opacity:0.715" fill="#FF8000" d="M 77.5,12.5 C 94.2947,28.5582 98.4614,47.5582 90,69.5C 88.5,71.8333 87,74.1667 85.5,76.5C 84.5,76.1667 83.8333,75.5 83.5,74.5C 89.0298,64.8139 91.5298,54.4806 91,43.5C 89.5522,41.1061 87.3856,39.6061 84.5,39C 78.4109,33.0312 76.7442,26.0312 79.5,18C 78.1439,16.4329 77.4772,14.5996 77.5,12.5 Z"/></g>
<g><path style="opacity:0.723" fill="#FF8000" d="M 46.5,81.5 C 47.6448,82.7927 47.3115,83.9593 45.5,85C 46.2402,87.2717 46.2402,89.2717 45.5,91C 49.3703,90.2581 53.3703,89.4248 57.5,88.5C 61.2203,88.8867 63.2203,90.8867 63.5,94.5C 57.9483,96.0366 52.2817,97.0366 46.5,97.5C 43.3514,97.3076 40.5181,96.3076 38,94.5C 33.8935,95.0299 32.8935,93.3633 35,89.5C 37.419,87.7874 39.919,87.1207 42.5,87.5C 42.9746,84.7993 44.308,82.7993 46.5,81.5 Z"/></g>
</svg>
